<svg version="1.1" id="Layer_1" xmlns="http://www.w3.org/2000/svg" xmlns:xlink="http://www.w3.org/1999/xlink" x="0px" y="0px"
	 width="100%" viewBox="0 0 512 512" enable-background="new 0 0 512 512" xml:space="preserve">
<path fill="#000000" opacity="1.000000" stroke="none" 
	d="
M1.000000,172.000000 
	C1.000000,114.666664 1.000000,57.833332 1.000000,1.000000 
	C171.666672,1.000000 342.333344,1.000000 513.000000,1.000000 
	C513.000000,171.666672 513.000000,342.333344 513.000000,513.000000 
	C342.333344,513.000000 171.666672,513.000000 1.000000,513.000000 
	C1.000000,399.500000 1.000000,286.000000 1.000000,172.000000 
M457.713776,304.277039 
	C456.498016,303.432281 455.282288,302.587524 454.065216,300.837494 
	C454.041931,229.024567 454.020325,157.211655 453.988434,85.398727 
	C453.987305,82.901512 453.884064,80.404350 453.942596,76.989578 
	C453.639923,66.376350 454.277008,55.633778 452.837799,45.176979 
	C449.894440,23.792068 431.961121,9.001122 410.478699,9.000431 
	C292.174927,8.996629 173.871170,8.988064 55.567425,9.040633 
	C51.454975,9.042460 47.299725,9.404788 43.238129,10.057637 
	C27.500219,12.587303 12.066253,27.346813 10.223798,43.109386 
	C8.881397,54.593899 9.448770,66.301643 9.068380,78.854012 
	C9.046148,80.686165 9.004509,82.518318 9.004459,84.350471 
	C9.001486,192.967422 8.999188,301.584381 9.004169,410.201324 
	C9.005294,434.743103 28.368105,453.990936 53.076740,453.993225 
	C144.035110,454.001709 234.993469,453.998108 325.951843,453.981506 
	C328.109894,453.981110 330.267853,453.774750 332.859863,454.166199 
	C339.271362,461.647827 345.698517,469.116089 352.089874,476.614899 
	C358.058380,483.617615 364.344116,490.386871 369.846893,497.740326 
	C376.839264,507.084290 392.270081,507.420715 400.009491,498.113464 
	C406.403076,490.424622 412.834259,482.765533 419.347473,475.177979 
	C428.018951,465.076263 436.876709,455.133484 445.488770,444.981873 
	C455.666962,432.984131 465.602997,420.781128 475.766815,408.770996 
	C484.146484,398.869049 492.973511,389.330994 501.015717,379.167480 
	C503.329834,376.243042 503.609955,371.709106 504.954041,367.105774 
	C505.208588,359.480377 500.080414,354.611298 495.783539,349.354584 
	C489.470428,341.631134 483.132202,333.925842 476.671570,326.325989 
	C470.525665,319.096344 464.208923,312.011993 457.713776,304.277039 
z"/>
<path fill="#2B2B49" opacity="1.000000" stroke="none" 
	d="
M332.425873,453.664429 
	C330.267853,453.774750 328.109894,453.981110 325.951843,453.981506 
	C234.993469,453.998108 144.035110,454.001709 53.076740,453.993225 
	C28.368105,453.990936 9.005294,434.743103 9.004169,410.201324 
	C8.999188,301.584381 9.001486,192.967422 9.004459,84.350471 
	C9.004509,82.518318 9.046148,80.686165 9.572029,78.400864 
	C123.512703,77.956123 236.949722,77.970108 350.386749,77.969566 
	C384.867310,77.969398 419.347870,77.929085 453.828430,77.907166 
	C453.884064,80.404350 453.987305,82.901512 453.988434,85.398727 
	C454.020325,157.211655 454.041931,229.024567 453.717804,301.184448 
	C450.953491,300.984833 448.536560,300.438232 445.735779,299.732544 
	C444.692474,299.507050 444.033081,299.382782 443.373657,299.382568 
	C404.841980,299.370544 366.310272,299.363678 327.778595,299.388031 
	C326.475372,299.388855 325.172363,299.714386 323.477295,299.873627 
	C319.341187,301.853546 315.597046,303.848419 311.555237,305.997772 
	C297.587982,322.416107 283.899139,338.663818 270.263214,354.955872 
	C267.123199,358.707520 264.910370,362.863342 265.807251,368.441650 
	C267.589172,372.850555 268.625763,377.473175 271.308258,380.747253 
	C284.050720,396.299957 297.288361,411.445831 310.254822,426.816559 
	C317.738098,435.687469 325.041504,444.710114 332.425873,453.664429 
M192.499786,248.487671 
	C227.326828,248.487640 262.153870,248.503357 296.980927,248.474899 
	C304.371429,248.468872 308.078339,245.539032 308.080536,239.937302 
	C308.082703,234.359360 304.272186,231.389618 297.002625,231.305435 
	C296.502777,231.299637 296.002777,231.304337 295.502869,231.304337 
	C230.014664,231.304352 164.526459,231.302917 99.038254,231.306274 
	C90.568542,231.306717 86.338799,234.179779 86.322380,239.906952 
	C86.305931,245.640930 90.485191,248.482574 99.016426,248.484634 
	C129.844208,248.492081 160.671982,248.487335 192.499786,248.487671 
M117.500023,333.872742 
	C110.002724,333.878967 102.503098,333.773926 95.008919,333.929962 
	C89.893929,334.036469 86.310394,337.701599 86.325478,342.368774 
	C86.339821,346.806580 89.738678,350.332123 94.558594,350.867188 
	C95.382957,350.958710 96.222786,350.925201 97.055473,350.925232 
	C143.872498,350.927673 190.689514,350.935455 237.506500,350.897766 
	C239.306671,350.896301 241.219940,350.765137 242.884094,350.156921 
	C247.038712,348.638489 248.749710,345.379852 248.180145,341.076050 
	C247.631104,336.927490 245.050308,334.565155 240.950500,333.996033 
	C239.312546,333.768707 237.624390,333.876862 235.959091,333.876648 
	C196.806076,333.871674 157.653046,333.872742 117.500023,333.872742 
M161.574219,176.924637 
	C166.250214,180.388626 170.801239,184.040573 175.640808,187.258514 
	C179.684738,189.947433 184.424744,188.840240 187.103561,185.106110 
	C189.695801,181.492661 189.249832,177.108505 185.798584,173.846252 
	C184.355728,172.482437 182.679611,171.361954 181.087372,170.160233 
	C174.346146,165.072449 167.596558,159.995728 160.415436,154.587662 
	C168.627014,148.422928 176.346008,142.678314 184.007675,136.858246 
	C189.053162,133.025543 190.123978,128.194656 187.008316,123.953590 
	C183.949661,119.790115 178.780228,119.391968 173.794098,123.109528 
	C163.262772,130.961472 152.760010,138.852402 142.301102,146.800446 
	C135.956879,151.621597 135.957275,157.561478 142.269608,162.396408 
	C148.473938,167.148636 154.758926,171.795609 161.574219,176.924637 
M283.428986,168.931122 
	C281.562836,170.326843 279.644989,171.659149 277.841003,173.131073 
	C273.711426,176.500580 272.890442,181.094223 275.631165,185.022293 
	C278.461212,189.078384 283.516113,190.029831 287.930908,186.802917 
	C299.217468,178.553238 310.435425,170.202484 321.489044,161.644440 
	C326.806519,157.527527 326.510925,151.546539 321.151398,147.251434 
	C317.775818,144.546249 314.253082,142.024216 310.788239,139.430908 
	C303.192902,133.746094 295.617981,128.033478 287.981964,122.403809 
	C284.707977,119.990067 280.725922,119.335548 277.902740,122.206375 
	C275.872162,124.271263 274.520081,127.900887 274.564636,130.806458 
	C274.596558,132.886581 277.112213,135.340149 279.090515,136.905777 
	C286.601685,142.850128 294.345123,148.501022 302.462555,154.608368 
	C295.932983,159.521820 289.966644,164.011429 283.428986,168.931122 
M379.499573,248.457367 
	C389.642303,248.452393 399.786835,248.560318 409.927063,248.398331 
	C415.627075,248.307297 419.017883,244.955612 419.046295,239.977158 
	C419.074524,235.027969 415.661774,231.417969 410.028961,231.389038 
	C384.756042,231.259216 359.481964,231.304672 334.208527,231.374908 
	C330.455231,231.385330 327.469513,233.063660 325.951294,236.726700 
	C323.442657,242.779419 327.667053,248.352112 335.102112,248.416397 
	C349.566956,248.541504 364.033630,248.455734 379.499573,248.457367 
M212.500381,265.542358 
	C204.518921,265.563293 196.532471,265.421448 188.557831,265.665436 
	C183.676254,265.814850 180.285522,269.421936 180.163422,273.855286 
	C180.042770,278.236115 183.340210,281.861450 188.132675,282.550476 
	C189.114014,282.691559 190.122330,282.679443 191.118225,282.679718 
	C215.064117,282.686127 239.010040,282.698486 262.955841,282.656708 
	C264.763092,282.653564 266.661407,282.537994 268.359253,281.987244 
	C273.445160,280.337463 275.565277,274.370209 272.858856,269.760468 
	C270.711884,266.103607 267.221527,265.521332 263.387634,265.529572 
	C246.758621,265.565308 230.129486,265.543396 212.500381,265.542358 
M180.483307,306.154205 
	C180.007370,312.977295 183.075867,316.749512 189.761169,316.778534 
	C214.731018,316.886993 239.701843,316.879761 264.671753,316.779297 
	C270.477783,316.755951 274.158569,313.000885 274.005463,307.931580 
	C273.856659,303.005371 270.360229,299.788361 264.631866,299.773254 
	C239.661713,299.707245 214.691284,299.758057 189.721008,299.730408 
	C185.470215,299.725708 182.296051,301.241852 180.483307,306.154205 
M214.407883,187.673843 
	C214.857773,193.564865 217.360291,196.663544 221.998047,197.072189 
	C226.635223,197.480804 229.974609,195.135971 231.311615,189.896744 
	C236.907593,167.968201 242.436050,146.021759 247.830902,124.043007 
	C249.324600,117.957687 246.692383,113.443695 241.591949,112.305931 
	C236.844604,111.246910 232.658951,114.244064 231.207581,120.036964 
	C225.626205,142.314026 220.122818,164.610641 214.407883,187.673843 
M239.499146,402.175110 
	C223.007538,402.126831 206.515869,402.037018 190.024323,402.052612 
	C184.184799,402.058105 180.274277,405.504852 180.162567,410.426453 
	C180.050232,415.375305 183.953720,419.024261 189.699738,419.059814 
	C211.521072,419.194885 233.342834,419.288055 255.164536,419.321869 
	C261.606262,419.331848 265.359924,416.176819 265.448608,411.008331 
	C265.540588,405.647430 261.633636,402.345276 254.990433,402.251160 
	C250.160416,402.182770 245.329254,402.197479 239.499146,402.175110 
M153.000092,282.735138 
	C153.663513,282.692474 154.340820,282.721375 154.988190,282.595917 
	C160.414459,281.543884 163.321289,278.244293 163.024612,273.516266 
	C162.732651,268.863281 159.371658,265.605194 153.896927,265.489777 
	C143.585831,265.272339 133.267181,265.371826 122.951950,265.411346 
	C118.800285,265.427246 114.618629,265.360931 110.506699,265.826874 
	C106.370522,266.295593 103.985794,269.158691 103.505493,273.179077 
	C103.047226,277.015045 104.788879,280.116364 108.346954,281.641815 
	C110.257355,282.460907 112.541595,282.680054 114.660652,282.695709 
	C127.138512,282.787903 139.617401,282.740570 153.000092,282.735138 
M182.358398,382.084534 
	C184.631042,382.947937 186.888123,384.509491 189.178848,384.560516 
	C203.152130,384.871674 217.133652,384.945099 231.111160,384.868256 
	C236.429276,384.839020 240.123703,380.846069 239.944290,376.041931 
	C239.768967,371.347290 236.243927,367.977478 231.002335,367.905457 
	C217.191971,367.715668 203.379501,367.574310 189.568176,367.597717 
	C180.987015,367.612244 177.558319,373.948944 182.358398,382.084534 
M104.234756,372.865356 
	C102.319443,380.482880 105.597023,384.931671 113.380791,384.978271 
	C126.697441,385.058014 140.015167,385.046448 153.331955,384.978027 
	C159.290939,384.947388 162.974426,381.631134 163.023300,376.550629 
	C163.073090,371.375397 159.489365,368.025879 153.527176,367.994202 
	C140.043961,367.922607 126.552414,367.732208 113.082680,368.164429 
	C110.216576,368.256409 107.428963,370.794678 104.234756,372.865356 
M133.500000,419.073273 
	C140.146286,419.071716 146.793396,419.134460 153.438614,419.049591 
	C159.474335,418.972504 163.008591,415.782379 163.024368,410.610504 
	C163.039825,405.547119 159.357147,402.101776 153.458359,402.061768 
	C140.000244,401.970490 126.540749,401.977661 113.082489,402.058258 
	C107.277939,402.092987 103.390724,405.643219 103.387672,410.566803 
	C103.384598,415.523865 107.236137,418.977234 113.059853,419.049622 
	C119.539009,419.130188 126.019897,419.071442 133.500000,419.073273 
M150.366577,299.776520 
	C137.903107,299.779388 125.439430,299.824341 112.976295,299.761963 
	C108.699188,299.740540 105.512314,301.284515 103.989693,305.414764 
	C101.810257,311.326630 106.043167,316.696960 113.188820,316.800598 
	C123.655968,316.952423 134.126877,316.852234 144.596176,316.843567 
	C148.084900,316.840698 151.596237,317.028564 155.056870,316.701782 
	C159.904404,316.244049 163.085281,312.590424 163.024109,308.086761 
	C162.961014,303.443665 159.810471,300.258728 154.806458,299.837463 
	C153.650314,299.740143 152.481537,299.792816 150.366577,299.776520 
M322.599945,267.936768 
	C320.312195,267.119019 318.063751,265.765808 315.728516,265.594269 
	C310.773804,265.230347 305.770416,265.364532 300.793396,265.511566 
	C294.885468,265.686066 291.125702,269.111816 291.118835,274.034271 
	C291.111938,278.968842 294.876587,282.475281 300.729279,282.666351 
	C305.705475,282.828796 310.697693,282.867981 315.671021,282.667755 
	C324.176697,282.325256 327.454407,275.985138 322.599945,267.936768 
M61.200645,276.788879 
	C63.463879,283.417084 70.763397,283.542725 79.646713,282.200653 
	C84.169518,281.517334 86.406281,278.105286 86.127167,273.477936 
	C85.860794,269.061523 83.304947,266.388763 78.986397,265.780365 
	C76.202545,265.388153 73.333275,265.404083 70.512604,265.510529 
	C63.508766,265.774841 60.836830,268.802887 61.200645,276.788879 
M57.366467,248.535675 
	C58.364845,248.515732 59.369930,248.563248 60.360493,248.464722 
	C66.088142,247.894913 69.277420,244.656372 69.120316,239.617065 
	C68.973083,234.894394 65.633492,231.644714 60.245567,231.361938 
	C57.102867,231.196976 53.876072,231.132782 50.794727,231.656464 
	C46.309135,232.418808 43.790092,235.373688 43.856964,240.042725 
	C43.923775,244.707870 46.508720,247.441849 51.026287,248.238251 
	C52.812313,248.553101 54.672256,248.448669 57.366467,248.535675 
M80.530655,368.415985 
	C76.547905,368.281891 72.551018,367.877350 68.586098,368.084534 
	C63.993454,368.324524 60.937183,371.869202 60.875000,376.330841 
	C60.812881,380.788300 63.786560,384.380737 68.314888,384.870361 
	C71.117416,385.173370 73.974228,384.962952 76.806305,385.006958 
	C81.091286,385.073578 84.458694,383.368011 85.732109,379.208588 
	C87.103172,374.730164 85.720886,370.989746 80.530655,368.415985 
M76.229332,419.079590 
	C82.796135,418.718109 85.948624,416.147156 86.159508,410.981201 
	C86.342285,406.503784 83.510948,402.721741 79.007080,402.234467 
	C75.390717,401.843262 71.664215,401.841919 68.048233,402.234894 
	C63.549465,402.723724 60.709877,406.513916 60.885681,410.984406 
	C61.060478,415.429108 64.161713,418.633850 68.833511,419.005341 
	C70.984993,419.176422 73.158981,419.064392 76.229332,419.079590 
M84.287437,313.627075 
	C88.518982,305.990814 85.140793,299.963501 76.477013,299.778900 
	C73.648758,299.718658 70.792198,299.637115 67.991661,299.950409 
	C64.063400,300.389862 61.661800,302.846436 61.005310,306.695770 
	C60.313850,310.750061 61.728615,314.492004 65.626106,315.670258 
	C71.673271,317.498444 78.024887,318.437317 84.287437,313.627075 
M45.628597,347.691467 
	C49.825962,351.174438 60.472961,352.306213 64.944252,349.658691 
	C68.339241,347.648438 69.673622,344.527313 68.975479,340.718994 
	C68.269394,336.867279 65.795654,334.472839 61.902210,334.029449 
	C59.102558,333.710632 56.228233,334.088043 53.415043,333.839691 
	C45.838196,333.170898 41.266369,341.000305 45.628597,347.691467 
z"/>
<path fill="#444477" opacity="1.000000" stroke="none" 
	d="
M453.885498,77.448372 
	C419.347870,77.929085 384.867310,77.969398 350.386749,77.969566 
	C236.949722,77.970108 123.512703,77.956123 9.620208,77.928787 
	C9.448770,66.301643 8.881397,54.593899 10.223798,43.109386 
	C12.066253,27.346813 27.500219,12.587303 43.238129,10.057637 
	C47.299725,9.404788 51.454975,9.042460 55.567425,9.040633 
	C173.871170,8.988064 292.174927,8.996629 410.478699,9.000431 
	C431.961121,9.001122 449.894440,23.792068 452.837799,45.176979 
	C454.277008,55.633778 453.639923,66.376350 453.885498,77.448372 
M223.448059,46.671585 
	C225.289124,51.407444 229.159286,52.064541 233.627625,52.058823 
	C277.591278,52.002563 321.555054,52.025318 365.518799,52.023201 
	C366.517700,52.023151 367.719452,52.348503 368.478271,51.913914 
	C370.952026,50.497128 374.475922,49.266094 375.318817,47.084057 
	C376.281982,44.590546 375.762299,40.381081 374.118408,38.345463 
	C372.477753,36.313847 368.652557,35.156582 365.778473,35.144066 
	C321.649017,34.951862 277.518463,34.990570 233.388245,35.028442 
	C226.124329,35.034676 222.820999,38.684299 223.448059,46.671585 
M111.554268,41.276360 
	C108.177528,34.785728 94.108429,32.184505 89.212929,37.622799 
	C87.444405,39.587421 86.289024,43.693466 87.129135,45.989975 
	C88.052399,48.513771 91.327347,50.748333 94.081734,51.859924 
	C96.513031,52.841129 99.639771,52.176395 102.456406,52.109894 
	C108.941231,51.956779 111.781944,48.849224 111.554268,41.276360 
M129.579895,46.641888 
	C131.069763,50.257099 133.799332,52.047127 137.679962,52.085960 
	C140.496185,52.114143 143.318893,52.203926 146.128159,52.060219 
	C150.917221,51.815231 154.375046,48.429977 154.594894,43.973015 
	C154.819168,39.426090 151.279510,35.548573 146.309448,35.134598 
	C143.840439,34.928944 141.340424,35.008709 138.857452,35.074261 
	C131.923813,35.257309 128.823196,38.797352 129.579895,46.641888 
M43.925770,45.178894 
	C44.977177,50.013550 48.171066,52.079517 52.917671,52.111378 
	C55.416416,52.128147 57.919315,52.195866 60.413494,52.085693 
	C65.769051,51.849121 69.042351,48.671452 69.110725,43.775341 
	C69.177887,38.966209 65.883354,35.508839 60.658630,35.125771 
	C58.172531,34.943497 55.660595,35.000072 53.164940,35.084217 
	C47.055721,35.290195 44.394672,37.979313 43.925770,45.178894 
z"/>
<path fill="#2074EF" opacity="1.000000" stroke="none" 
	d="
M332.642883,453.915344 
	C325.041504,444.710114 317.738098,435.687469 310.254822,426.816559 
	C297.288361,411.445831 284.050720,396.299957 271.308258,380.747253 
	C268.625763,377.473175 267.589172,372.850555 266.289856,368.434753 
	C292.191925,368.034363 317.598328,368.048523 343.000610,368.458679 
	C346.839569,381.587189 350.608032,394.342743 354.541473,407.047272 
	C362.465576,432.641174 370.464294,458.212036 378.467072,483.781494 
	C380.417175,490.012054 382.502258,496.200348 384.525269,502.408051 
	C386.459717,499.538788 387.305176,496.735382 388.182495,493.942017 
	C399.253052,458.693237 410.362305,423.456543 421.372040,388.188751 
	C423.446594,381.543213 425.129303,374.775299 427.461365,368.039886 
	C453.560822,367.981628 479.191742,367.947388 504.822632,367.913116 
	C503.609955,371.709106 503.329834,376.243042 501.015717,379.167480 
	C492.973511,389.330994 484.146484,398.869049 475.766815,408.770996 
	C465.602997,420.781128 455.666962,432.984131 445.488770,444.981873 
	C436.876709,455.133484 428.018951,465.076263 419.347473,475.177979 
	C412.834259,482.765533 406.403076,490.424622 400.009491,498.113464 
	C392.270081,507.420715 376.839264,507.084290 369.846893,497.740326 
	C364.344116,490.386871 358.058380,483.617615 352.089874,476.614899 
	C345.698517,469.116089 339.271362,461.647827 332.642883,453.915344 
z"/>
<path fill="#509FFD" opacity="1.000000" stroke="none" 
	d="
M504.888336,367.509460 
	C479.191742,367.947388 453.560822,367.981628 426.993134,368.016846 
	C398.372467,368.032745 370.688629,368.047729 343.004761,368.062683 
	C317.598328,368.048523 292.191925,368.034363 266.302917,368.027100 
	C264.910370,362.863342 267.123199,358.707520 270.263214,354.955872 
	C283.899139,338.663818 297.587982,322.416107 311.820068,306.235229 
	C322.299194,326.361694 332.215881,346.405151 342.499420,367.190186 
	C356.595581,344.622314 370.190247,322.857300 384.536774,299.888580 
	C363.405609,299.888580 343.637421,299.888580 323.869232,299.888580 
	C325.172363,299.714386 326.475372,299.388855 327.778595,299.388031 
	C366.310272,299.363678 404.841980,299.370544 443.373657,299.382568 
	C444.033081,299.382782 444.692474,299.507050 445.264160,299.791046 
	C425.662933,300.008667 406.149445,300.008667 385.495026,300.008667 
	C399.936432,323.009277 413.575623,344.732208 427.718048,367.256622 
	C438.123474,345.794067 448.045349,325.328888 457.967285,304.863708 
	C464.208923,312.011993 470.525665,319.096344 476.671570,326.325989 
	C483.132202,333.925842 489.470428,341.631134 495.783539,349.354584 
	C500.080414,354.611298 505.208588,359.480377 504.888336,367.509460 
z"/>
<path fill="#7BBDFF" opacity="1.000000" stroke="none" 
	d="
M457.840515,304.570374 
	C448.045349,325.328888 438.123474,345.794067 427.718048,367.256622 
	C413.575623,344.732208 399.936432,323.009277 385.495026,300.008667 
	C406.149445,300.008667 425.662933,300.008667 445.648041,299.950165 
	C448.536560,300.438232 450.953491,300.984833 453.718445,301.637085 
	C455.282288,302.587524 456.498016,303.432281 457.840515,304.570374 
z"/>
<path fill="#F2B827" opacity="1.000000" stroke="none" 
	d="
M191.999786,248.487427 
	C160.671982,248.487335 129.844208,248.492081 99.016426,248.484634 
	C90.485191,248.482574 86.305931,245.640930 86.322380,239.906952 
	C86.338799,234.179779 90.568542,231.306717 99.038254,231.306274 
	C164.526459,231.302917 230.014664,231.304352 295.502869,231.304337 
	C296.002777,231.304337 296.502777,231.299637 297.002625,231.305435 
	C304.272186,231.389618 308.082703,234.359360 308.080536,239.937302 
	C308.078339,245.539032 304.371429,248.468872 296.980927,248.474899 
	C262.153870,248.503357 227.326828,248.487640 191.999786,248.487427 
z"/>
<path fill="#F5BA26" opacity="1.000000" stroke="none" 
	d="
M118.000031,333.872742 
	C157.653046,333.872742 196.806076,333.871674 235.959091,333.876648 
	C237.624390,333.876862 239.312546,333.768707 240.950500,333.996033 
	C245.050308,334.565155 247.631104,336.927490 248.180145,341.076050 
	C248.749710,345.379852 247.038712,348.638489 242.884094,350.156921 
	C241.219940,350.765137 239.306671,350.896301 237.506500,350.897766 
	C190.689514,350.935455 143.872498,350.927673 97.055473,350.925232 
	C96.222786,350.925201 95.382957,350.958710 94.558594,350.867188 
	C89.738678,350.332123 86.339821,346.806580 86.325478,342.368774 
	C86.310394,337.701599 89.893929,334.036469 95.008919,333.929962 
	C102.503098,333.773926 110.002724,333.878967 118.000031,333.872742 
z"/>
<path fill="#7BBDFF" opacity="1.000000" stroke="none" 
	d="
M323.477295,299.873627 
	C343.637421,299.888580 363.405609,299.888580 384.536774,299.888580 
	C370.190247,322.857300 356.595581,344.622314 342.499420,367.190186 
	C332.215881,346.405151 322.299194,326.361694 312.117706,306.080750 
	C315.597046,303.848419 319.341187,301.853546 323.477295,299.873627 
z"/>
<path fill="#25E271" opacity="1.000000" stroke="none" 
	d="
M161.291367,176.706696 
	C154.758926,171.795609 148.473938,167.148636 142.269608,162.396408 
	C135.957275,157.561478 135.956879,151.621597 142.301102,146.800446 
	C152.760010,138.852402 163.262772,130.961472 173.794098,123.109528 
	C178.780228,119.391968 183.949661,119.790115 187.008316,123.953590 
	C190.123978,128.194656 189.053162,133.025543 184.007675,136.858246 
	C176.346008,142.678314 168.627014,148.422928 160.415436,154.587662 
	C167.596558,159.995728 174.346146,165.072449 181.087372,170.160233 
	C182.679611,171.361954 184.355728,172.482437 185.798584,173.846252 
	C189.249832,177.108505 189.695801,181.492661 187.103561,185.106110 
	C184.424744,188.840240 179.684738,189.947433 175.640808,187.258514 
	C170.801239,184.040573 166.250214,180.388626 161.291367,176.706696 
z"/>
<path fill="#25E271" opacity="1.000000" stroke="none" 
	d="
M283.714661,168.716080 
	C289.966644,164.011429 295.932983,159.521820 302.462555,154.608368 
	C294.345123,148.501022 286.601685,142.850128 279.090515,136.905777 
	C277.112213,135.340149 274.596558,132.886581 274.564636,130.806458 
	C274.520081,127.900887 275.872162,124.271263 277.902740,122.206375 
	C280.725922,119.335548 284.707977,119.990067 287.981964,122.403809 
	C295.617981,128.033478 303.192902,133.746094 310.788239,139.430908 
	C314.253082,142.024216 317.775818,144.546249 321.151398,147.251434 
	C326.510925,151.546539 326.806519,157.527527 321.489044,161.644440 
	C310.435425,170.202484 299.217468,178.553238 287.930908,186.802917 
	C283.516113,190.029831 278.461212,189.078384 275.631165,185.022293 
	C272.890442,181.094223 273.711426,176.500580 277.841003,173.131073 
	C279.644989,171.659149 281.562836,170.326843 283.714661,168.716080 
z"/>
<path fill="#FAFAFB" opacity="1.000000" stroke="none" 
	d="
M378.999573,248.457336 
	C364.033630,248.455734 349.566956,248.541504 335.102112,248.416397 
	C327.667053,248.352112 323.442657,242.779419 325.951294,236.726700 
	C327.469513,233.063660 330.455231,231.385330 334.208527,231.374908 
	C359.481964,231.304672 384.756042,231.259216 410.028961,231.389038 
	C415.661774,231.417969 419.074524,235.027969 419.046295,239.977158 
	C419.017883,244.955612 415.627075,248.307297 409.927063,248.398331 
	C399.786835,248.560318 389.642303,248.452393 378.999573,248.457336 
z"/>
<path fill="#FAFAFB" opacity="1.000000" stroke="none" 
	d="
M213.000397,265.542389 
	C230.129486,265.543396 246.758621,265.565308 263.387634,265.529572 
	C267.221527,265.521332 270.711884,266.103607 272.858856,269.760468 
	C275.565277,274.370209 273.445160,280.337463 268.359253,281.987244 
	C266.661407,282.537994 264.763092,282.653564 262.955841,282.656708 
	C239.010040,282.698486 215.064117,282.686127 191.118225,282.679718 
	C190.122330,282.679443 189.114014,282.691559 188.132675,282.550476 
	C183.340210,281.861450 180.042770,278.236115 180.163422,273.855286 
	C180.285522,269.421936 183.676254,265.814850 188.557831,265.665436 
	C196.532471,265.421448 204.518921,265.563293 213.000397,265.542389 
z"/>
<path fill="#FBFBFC" opacity="1.000000" stroke="none" 
	d="
M180.622986,305.790222 
	C182.296051,301.241852 185.470215,299.725708 189.721008,299.730408 
	C214.691284,299.758057 239.661713,299.707245 264.631866,299.773254 
	C270.360229,299.788361 273.856659,303.005371 274.005463,307.931580 
	C274.158569,313.000885 270.477783,316.755951 264.671753,316.779297 
	C239.701843,316.879761 214.731018,316.886993 189.761169,316.778534 
	C183.075867,316.749512 180.007370,312.977295 180.622986,305.790222 
z"/>
<path fill="#25E271" opacity="1.000000" stroke="none" 
	d="
M214.499115,187.286896 
	C220.122818,164.610641 225.626205,142.314026 231.207581,120.036964 
	C232.658951,114.244064 236.844604,111.246910 241.591949,112.305931 
	C246.692383,113.443695 249.324600,117.957687 247.830902,124.043007 
	C242.436050,146.021759 236.907593,167.968201 231.311615,189.896744 
	C229.974609,195.135971 226.635223,197.480804 221.998047,197.072189 
	C217.360291,196.663544 214.857773,193.564865 214.499115,187.286896 
z"/>
<path fill="#FCFCFC" opacity="1.000000" stroke="none" 
	d="
M239.998871,402.175110 
	C245.329254,402.197479 250.160416,402.182770 254.990433,402.251160 
	C261.633636,402.345276 265.540588,405.647430 265.448608,411.008331 
	C265.359924,416.176819 261.606262,419.331848 255.164536,419.321869 
	C233.342834,419.288055 211.521072,419.194885 189.699738,419.059814 
	C183.953720,419.024261 180.050232,415.375305 180.162567,410.426453 
	C180.274277,405.504852 184.184799,402.058105 190.024323,402.052612 
	C206.515869,402.037018 223.007538,402.126831 239.998871,402.175110 
z"/>
<path fill="#2072EB" opacity="1.000000" stroke="none" 
	d="
M152.548019,282.737671 
	C139.617401,282.740570 127.138512,282.787903 114.660652,282.695709 
	C112.541595,282.680054 110.257355,282.460907 108.346954,281.641815 
	C104.788879,280.116364 103.047226,277.015045 103.505493,273.179077 
	C103.985794,269.158691 106.370522,266.295593 110.506699,265.826874 
	C114.618629,265.360931 118.800285,265.427246 122.951950,265.411346 
	C133.267181,265.371826 143.585831,265.272339 153.896927,265.489777 
	C159.371658,265.605194 162.732651,268.863281 163.024612,273.516266 
	C163.321289,278.244293 160.414459,281.543884 154.988190,282.595917 
	C154.340820,282.721375 153.663513,282.692474 152.548019,282.737671 
z"/>
<path fill="#FBFBFC" opacity="1.000000" stroke="none" 
	d="
M182.102783,381.788696 
	C177.558319,373.948944 180.987015,367.612244 189.568176,367.597717 
	C203.379501,367.574310 217.191971,367.715668 231.002335,367.905457 
	C236.243927,367.977478 239.768967,371.347290 239.944290,376.041931 
	C240.123703,380.846069 236.429276,384.839020 231.111160,384.868256 
	C217.133652,384.945099 203.152130,384.871674 189.178848,384.560516 
	C186.888123,384.509491 184.631042,382.947937 182.102783,381.788696 
z"/>
<path fill="#2073EE" opacity="1.000000" stroke="none" 
	d="
M104.419968,372.535645 
	C107.428963,370.794678 110.216576,368.256409 113.082680,368.164429 
	C126.552414,367.732208 140.043961,367.922607 153.527176,367.994202 
	C159.489365,368.025879 163.073090,371.375397 163.023300,376.550629 
	C162.974426,381.631134 159.290939,384.947388 153.331955,384.978027 
	C140.015167,385.046448 126.697441,385.058014 113.380791,384.978271 
	C105.597023,384.931671 102.319443,380.482880 104.419968,372.535645 
z"/>
<path fill="#2073ED" opacity="1.000000" stroke="none" 
	d="
M133.000015,419.073303 
	C126.019897,419.071442 119.539009,419.130188 113.059853,419.049622 
	C107.236137,418.977234 103.384598,415.523865 103.387672,410.566803 
	C103.390724,405.643219 107.277939,402.092987 113.082489,402.058258 
	C126.540749,401.977661 140.000244,401.970490 153.458359,402.061768 
	C159.357147,402.101776 163.039825,405.547119 163.024368,410.610504 
	C163.008591,415.782379 159.474335,418.972504 153.438614,419.049591 
	C146.793396,419.134460 140.146286,419.071716 133.000015,419.073303 
z"/>
<path fill="#2073EC" opacity="1.000000" stroke="none" 
	d="
M150.842575,299.776520 
	C152.481537,299.792816 153.650314,299.740143 154.806458,299.837463 
	C159.810471,300.258728 162.961014,303.443665 163.024109,308.086761 
	C163.085281,312.590424 159.904404,316.244049 155.056870,316.701782 
	C151.596237,317.028564 148.084900,316.840698 144.596176,316.843567 
	C134.126877,316.852234 123.655968,316.952423 113.188820,316.800598 
	C106.043167,316.696960 101.810257,311.326630 103.989693,305.414764 
	C105.512314,301.284515 108.699188,299.740540 112.976295,299.761963 
	C125.439430,299.824341 137.903107,299.779388 150.842575,299.776520 
z"/>
<path fill="#FA4C4D" opacity="1.000000" stroke="none" 
	d="
M322.865906,268.224487 
	C327.454407,275.985138 324.176697,282.325256 315.671021,282.667755 
	C310.697693,282.867981 305.705475,282.828796 300.729279,282.666351 
	C294.876587,282.475281 291.111938,278.968842 291.118835,274.034271 
	C291.125702,269.111816 294.885468,265.686066 300.793396,265.511566 
	C305.770416,265.364532 310.773804,265.230347 315.728516,265.594269 
	C318.063751,265.765808 320.312195,267.119019 322.865906,268.224487 
z"/>
<path fill="#FA4C4D" opacity="1.000000" stroke="none" 
	d="
M61.111679,276.394440 
	C60.836830,268.802887 63.508766,265.774841 70.512604,265.510529 
	C73.333275,265.404083 76.202545,265.388153 78.986397,265.780365 
	C83.304947,266.388763 85.860794,269.061523 86.127167,273.477936 
	C86.406281,278.105286 84.169518,281.517334 79.646713,282.200653 
	C70.763397,283.542725 63.463879,283.417084 61.111679,276.394440 
z"/>
<path fill="#FA4C4D" opacity="1.000000" stroke="none" 
	d="
M56.932507,248.535400 
	C54.672256,248.448669 52.812313,248.553101 51.026287,248.238251 
	C46.508720,247.441849 43.923775,244.707870 43.856964,240.042725 
	C43.790092,235.373688 46.309135,232.418808 50.794727,231.656464 
	C53.876072,231.132782 57.102867,231.196976 60.245567,231.361938 
	C65.633492,231.644714 68.973083,234.894394 69.120316,239.617065 
	C69.277420,244.656372 66.088142,247.894913 60.360493,248.464722 
	C59.369930,248.563248 58.364845,248.515732 56.932507,248.535400 
z"/>
<path fill="#FB4C4D" opacity="1.000000" stroke="none" 
	d="
M80.905663,368.593811 
	C85.720886,370.989746 87.103172,374.730164 85.732109,379.208588 
	C84.458694,383.368011 81.091286,385.073578 76.806305,385.006958 
	C73.974228,384.962952 71.117416,385.173370 68.314888,384.870361 
	C63.786560,384.380737 60.812881,380.788300 60.875000,376.330841 
	C60.937183,371.869202 63.993454,368.324524 68.586098,368.084534 
	C72.551018,367.877350 76.547905,368.281891 80.905663,368.593811 
z"/>
<path fill="#FB4C4D" opacity="1.000000" stroke="none" 
	d="
M75.776047,419.080170 
	C73.158981,419.064392 70.984993,419.176422 68.833511,419.005341 
	C64.161713,418.633850 61.060478,415.429108 60.885681,410.984406 
	C60.709877,406.513916 63.549465,402.723724 68.048233,402.234894 
	C71.664215,401.841919 75.390717,401.843262 79.007080,402.234467 
	C83.510948,402.721741 86.342285,406.503784 86.159508,410.981201 
	C85.948624,416.147156 82.796135,418.718109 75.776047,419.080170 
z"/>
<path fill="#FB4C4D" opacity="1.000000" stroke="none" 
	d="
M84.023102,313.921204 
	C78.024887,318.437317 71.673271,317.498444 65.626106,315.670258 
	C61.728615,314.492004 60.313850,310.750061 61.005310,306.695770 
	C61.661800,302.846436 64.063400,300.389862 67.991661,299.950409 
	C70.792198,299.637115 73.648758,299.718658 76.477013,299.778900 
	C85.140793,299.963501 88.518982,305.990814 84.023102,313.921204 
z"/>
<path fill="#FB4C4D" opacity="1.000000" stroke="none" 
	d="
M45.392487,347.370911 
	C41.266369,341.000305 45.838196,333.170898 53.415043,333.839691 
	C56.228233,334.088043 59.102558,333.710632 61.902210,334.029449 
	C65.795654,334.472839 68.269394,336.867279 68.975479,340.718994 
	C69.673622,344.527313 68.339241,347.648438 64.944252,349.658691 
	C60.472961,352.306213 49.825962,351.174438 45.392487,347.370911 
z"/>
<path fill="#2A2A49" opacity="1.000000" stroke="none" 
	d="
M223.324753,46.288387 
	C222.820999,38.684299 226.124329,35.034676 233.388245,35.028442 
	C277.518463,34.990570 321.649017,34.951862 365.778473,35.144066 
	C368.652557,35.156582 372.477753,36.313847 374.118408,38.345463 
	C375.762299,40.381081 376.281982,44.590546 375.318817,47.084057 
	C374.475922,49.266094 370.952026,50.497128 368.478271,51.913914 
	C367.719452,52.348503 366.517700,52.023151 365.518799,52.023201 
	C321.555054,52.025318 277.591278,52.002563 233.627625,52.058823 
	C229.159286,52.064541 225.289124,51.407444 223.324753,46.288387 
z"/>
<path fill="#F3B828" opacity="1.000000" stroke="none" 
	d="
M111.666374,41.655182 
	C111.781944,48.849224 108.941231,51.956779 102.456406,52.109894 
	C99.639771,52.176395 96.513031,52.841129 94.081734,51.859924 
	C91.327347,50.748333 88.052399,48.513771 87.129135,45.989975 
	C86.289024,43.693466 87.444405,39.587421 89.212929,37.622799 
	C94.108429,32.184505 108.177528,34.785728 111.666374,41.655182 
z"/>
<path fill="#26E272" opacity="1.000000" stroke="none" 
	d="
M129.437531,46.272705 
	C128.823196,38.797352 131.923813,35.257309 138.857452,35.074261 
	C141.340424,35.008709 143.840439,34.928944 146.309448,35.134598 
	C151.279510,35.548573 154.819168,39.426090 154.594894,43.973015 
	C154.375046,48.429977 150.917221,51.815231 146.128159,52.060219 
	C143.318893,52.203926 140.496185,52.114143 137.679962,52.085960 
	C133.799332,52.047127 131.069763,50.257099 129.437531,46.272705 
z"/>
<path fill="#FC4D4E" opacity="1.000000" stroke="none" 
	d="
M43.890053,44.770523 
	C44.394672,37.979313 47.055721,35.290195 53.164940,35.084217 
	C55.660595,35.000072 58.172531,34.943497 60.658630,35.125771 
	C65.883354,35.508839 69.177887,38.966209 69.110725,43.775341 
	C69.042351,48.671452 65.769051,51.849121 60.413494,52.085693 
	C57.919315,52.195866 55.416416,52.128147 52.917671,52.111378 
	C48.171066,52.079517 44.977177,50.013550 43.890053,44.770523 
z"/>
<path fill="#1663BF" opacity="1.000000" stroke="none" 
	d="
M343.000610,368.458679 
	C370.688629,368.047729 398.372467,368.032745 426.524597,368.040833 
	C425.129303,374.775299 423.446594,381.543213 421.372040,388.188751 
	C410.362305,423.456543 399.253052,458.693237 388.182495,493.942017 
	C387.305176,496.735382 386.459717,499.538788 384.525269,502.408051 
	C382.502258,496.200348 380.417175,490.012054 378.467072,483.781494 
	C370.464294,458.212036 362.465576,432.641174 354.541473,407.047272 
	C350.608032,394.342743 346.839569,381.587189 343.000610,368.458679 
z"/>
</svg>